<?xml version="1.0" encoding="utf-8"?>
<!-- Generator: Adobe Illustrator 16.0.0, SVG Export Plug-In . SVG Version: 6.00 Build 0)  -->
<!DOCTYPE svg PUBLIC "-//W3C//DTD SVG 1.1//EN" "http://www.w3.org/Graphics/SVG/1.1/DTD/svg11.dtd">
<svg version="1.1" id="Layer_1" xmlns="http://www.w3.org/2000/svg" xmlns:xlink="http://www.w3.org/1999/xlink" x="0px" y="0px"
	 width="960px" height="560px" viewBox="0 0 960 560" enable-background="new 0 0 960 560" xml:space="preserve">
<g>
	<g>
		<g>
			<path fill="#1A1A1A" d="M582.16,376.863c0-1.982,1.668-3.653,3.654-3.653c1.982,0,3.656,1.671,3.656,3.653
				c0,1.988-1.674,3.658-3.656,3.658C583.828,380.521,582.16,378.852,582.16,376.863z"/>
			<path fill="#1A1A1A" d="M603.783,362.979c0-10.453,7.83-17.592,17.904-17.592c6.908,0,11.15,3.567,13.711,7.647l-5.115,2.604
				c-1.641-2.805-4.91-4.947-8.596-4.947c-6.752,0-11.766,5.149-11.766,12.288c0,7.143,5.014,12.293,11.766,12.293
				c3.686,0,6.955-2.091,8.596-4.947l5.115,2.602c-2.605,4.076-6.803,7.649-13.711,7.649
				C611.613,380.575,603.783,373.433,603.783,362.979z"/>
			<path fill="#1A1A1A" d="M648.029,379.962v-4.942l17.732-24.383h-17.732v-5.359h25.633v4.939l-17.727,24.389h18.094v5.356H648.029
				z"/>
		</g>
		<path fill="#1A1A1A" d="M285.97,380.507v-35.02h13.018c10.926,0,18.324,7.245,18.324,17.532c0,10.295-7.398,17.487-18.324,17.487
			H285.97z M311.016,363.02c0-6.771-4.203-12.126-12.027-12.126h-6.874v24.203h6.874
			C306.608,375.097,311.016,369.637,311.016,363.02z"/>
		<path fill="#1A1A1A" d="M352.771,380.507l-2.574-6.722h-16.064l-2.576,6.722h-6.982l13.76-35.02h7.661l13.761,35.02H352.771z
			 M342.163,351.682l-6.302,16.693h12.606L342.163,351.682z"/>
		<path fill="#1A1A1A" d="M393.042,380.507l-7.772-13.076h-6.086v13.076h-6.149v-35.02h15.39c6.927,0,11.438,4.514,11.438,10.971
			c0,6.245-4.087,9.609-8.29,10.295l8.559,13.754H393.042z M393.565,356.458c0-3.36-2.521-5.564-5.983-5.564h-8.398v11.131h8.398
			C391.044,362.024,393.565,359.819,393.565,356.458z"/>
		<path fill="#1A1A1A" d="M415.46,366.319v-20.832h6.197v20.632c0,5.466,3.093,9.021,8.978,9.021c5.833,0,8.926-3.555,8.926-9.021
			v-20.632h6.198v20.783c0,8.561-4.985,14.236-15.124,14.236C420.448,380.507,415.46,374.782,415.46,366.319z"/>
		<path fill="#1A1A1A" d="M456.318,377.173l2.813-4.631c1.407,1.51,3.272,2.864,5.93,2.864c3.746,0,6.089-2.501,6.089-6.297v-23.622
			h6.084v23.727c0,7.909-4.992,11.601-11.705,11.601C461.94,380.814,458.764,379.776,456.318,377.173z"/>
		<path fill="#1A1A1A" d="M523.947,380.507v-25.99l-10.762,25.99h-2.629l-10.705-25.99v25.99h-6.141v-35.02h8.66l9.502,23.048
			l9.557-23.048h8.66v35.02H523.947z"/>
		<path fill="#1A1A1A" d="M545.691,380.507v-35.02h23.998v5.406h-17.85v9.087h17.482v5.408H551.84v9.708h17.85v5.41H545.691z"/>
	</g>
	<path fill="#E88E38" d="M562.748,193.104c0.604-12.83-10.055-15.361-18.617-13.259c-7.66,1.878-14.148,6.088-20.312,10.645
		c-18.199,13.448-33.107,28.197-42.9,48.326c-0.369,0.75-1.999,3.886-2.762,5.113c-0.763-1.228-2.393-4.363-2.762-5.113
		c-9.792-20.128-24.699-34.877-42.899-48.326c-6.163-4.557-12.652-8.767-20.313-10.645c-8.562-2.102-19.22,0.43-18.617,13.259
		c0.25,5.446-0.043,9.566,0.22,15.01c0.515,10.57,1.042,21.15,4.397,31.362c2.777,8.438,7.858,15.01,16.769,18.115
		c3.866,1.348,7.986,2.126,12.051,2.837c3.454,0.603,7.002,0.739,9.598,0.993c-4.92,2.224-10.824,4.045-15.684,7.292
		c-7.345,4.9-12.07,12.302-9.464,20.866c3.847,12.639,12.119,22.652,24.517,29.05c4.602,2.38,9.102,2.213,13.66-0.5
		c10.374-6.171,18.04-14.417,23.451-24.432l-17.569-19.663c-5.601-5.89-5.748-14.954,0-20.837c5.74-5.635,15.083-4.699,20.818,0.934
		l1.812,1.931v0.034l0.016-0.018l0.017,0.018v-0.034l1.812-1.931c5.736-5.633,15.078-6.568,20.82-0.934
		c5.748,5.883,5.6,14.947,0,20.837l-17.57,19.663c5.412,10.015,13.078,18.261,23.451,24.432c4.559,2.713,9.059,2.88,13.66,0.5
		c12.398-6.397,20.67-16.411,24.516-29.05c2.607-8.564-2.119-15.966-9.463-20.866c-4.859-3.247-10.764-5.068-15.684-7.292
		c2.596-0.254,6.143-0.391,9.598-0.993c4.064-0.711,8.184-1.489,12.051-2.837c8.91-3.105,13.99-9.678,16.77-18.115
		c3.355-10.211,3.881-20.792,4.396-31.362C562.791,202.67,562.498,198.55,562.748,193.104z"/>
</g>
</svg>
