<?xml version="1.0" encoding="UTF-8" standalone="no"?>
<!-- Created with Inkscape (http://www.inkscape.org/) -->

<svg
   xmlns:dc="http://purl.org/dc/elements/1.1/"
   xmlns:cc="http://creativecommons.org/ns#"
   xmlns:rdf="http://www.w3.org/1999/02/22-rdf-syntax-ns#"
   xmlns:svg="http://www.w3.org/2000/svg"
   xmlns="http://www.w3.org/2000/svg"
   xmlns:sodipodi="http://sodipodi.sourceforge.net/DTD/sodipodi-0.dtd"
   xmlns:inkscape="http://www.inkscape.org/namespaces/inkscape"
   width="210mm"
   height="297mm"
   viewBox="0 0 210 297"
   version="1.1"
   id="svg8"
   inkscape:version="0.92.4 (5da689c313, 2019-01-14)"
   sodipodi:docname="Ä.1.svg">
  <defs
     id="defs2" />
  <sodipodi:namedview
     id="base"
     pagecolor="#ffffff"
     bordercolor="#666666"
     borderopacity="1.0"
     inkscape:pageopacity="0.0"
     inkscape:pageshadow="2"
     inkscape:zoom="0.35"
     inkscape:cx="384.28571"
     inkscape:cy="794.28571"
     inkscape:document-units="mm"
     inkscape:current-layer="layer1"
     showgrid="false"
     inkscape:window-width="1600"
     inkscape:window-height="837"
     inkscape:window-x="-8"
     inkscape:window-y="-8"
     inkscape:window-maximized="1" />
  <metadata
     id="metadata5">
    <rdf:RDF>
      <cc:Work
         rdf:about="">
        <dc:format>image/svg+xml</dc:format>
        <dc:type
           rdf:resource="http://purl.org/dc/dcmitype/StillImage" />
        <dc:title></dc:title>
      </cc:Work>
    </rdf:RDF>
  </metadata>
  <g
     inkscape:label="Vrstva 1"
     inkscape:groupmode="layer"
     id="layer1">
    <ellipse
       style="fill:#a3d14c;fill-opacity:1;stroke-width:0.41497853"
       id="path5089"
       cx="106.58929"
       cy="132.95833"
       rx="99.785713"
       ry="98.273804" />
    <path
       style="fill:none;stroke:#000000;stroke-width:0.77645314px;stroke-linecap:butt;stroke-linejoin:miter;stroke-opacity:1"
       d="m 60.463188,58.894128 -15.63832,32.139299 10.288373,2.98973 14.815246,-32.513048 z"
       id="path3787"
       inkscape:connector-curvature="0" />
    <path
       style="fill:none;stroke:#000000;stroke-width:0.77069521px;stroke-linecap:butt;stroke-linejoin:miter;stroke-opacity:1"
       d="m 66.516162,68.998676 c 44.474308,11.170675 39.421218,9.221543 45.640428,12.72997 6.21915,3.508389 16.71406,21.050324 16.71406,21.050324 -0.41415,-0.0832 1.53572,0.77584 -1.16609,5.84737 0,0 -1.41544,2.93563 -4.22791,5.47059 -2.18482,1.96916 -2.08848,3.08392 -7.14155,1.91444 -1.28798,-0.29795 -1.83804,-2.31278 -1.91707,-3.7911 -0.0964,-1.80694 2.04466,-3.44358 2.64349,-4.14399 3.46221,-4.04966 -0.32098,-6.94338 -0.43489,-7.05152 -3.9111,-3.710757 -6.18205,-5.019983 -9.91183,-5.262568 -2.95422,-0.19208 -3.64656,0.144878 -6.56213,1.556994 -1.343311,0.650456 1.70985,-1.053791 -2.280797,1.366664 -2.79368,1.69448 -5.976868,3.62652 -4.131357,4.83935 8.591734,5.6462 7.755784,6.43042 16.217234,9.13513 1.75455,0.56082 2.17253,3.48243 1.45717,5.25277 -0.78613,1.94559 -3.1225,1.84099 -4.88877,1.85657 -6.06282,0.0536 -11.554962,-3.39499 -16.914138,-6.07567 -4.855869,-2.42894 -9.854657,-5.03233 -13.604481,-8.9659 C 73.116896,101.69583 72.49985,96.928193 69.593987,93.910548 66.689786,90.894659 59.04364,87.109335 59.04364,87.109335 Z"
       id="path3789"
       inkscape:connector-curvature="0"
       sodipodi:nodetypes="ccccsssssssssssaaascc" />
    <path
       style="fill:none;stroke:#000000;stroke-width:0.71873999px;stroke-linecap:butt;stroke-linejoin:miter;stroke-opacity:1"
       d="m 67.047754,146.94509 c 0.411522,33.62335 -0.411549,46.11196 -0.411549,46.11196 32.863699,0.854 64.393285,0.4965 95.064525,-0.64045 l -2.05768,-45.47151 z"
       id="path3791"
       inkscape:connector-curvature="0"
       sodipodi:nodetypes="ccccc" />
    <path
       style="fill:none;stroke:#000000;stroke-width:0.82166064px;stroke-linecap:butt;stroke-linejoin:miter;stroke-opacity:1"
       d="m 89.071577,127.28168 -22.023823,19.66341 h 92.623496 l -17.49556,-18.82663 c -15.60947,-0.9762 -36.36309,0.13915 -53.104113,-0.83678 z"
       id="path3793"
       inkscape:connector-curvature="0"
       sodipodi:nodetypes="ccccc" />
    <rect
       id="rect3795"
       width="31.688175"
       height="2.802846"
       x="99.353233"
       y="136.43961"
       style="stroke-width:1.22768033" />
    <ellipse
       id="path3797"
       cx="51.783596"
       cy="88.863037"
       rx="2.0950611"
       ry="1.6097989"
       style="stroke-width:0.77645314" />
    <ellipse
       style="fill:none;stroke-width:0.77645314"
       id="path3807"
       cx="118.1713"
       cy="112.7503"
       rx="4.2085881"
       ry="7.8894653" />
    <ellipse
       style="fill:#000000;stroke-width:1.56777918"
       id="path7757"
       cx="113.62482"
       cy="129.07745"
       rx="11.037753"
       ry="9.7912798" />
    <ellipse
       style="fill:#aa6380;stroke-width:1.41922212;fill-opacity:1"
       id="path7757-2"
       cx="113.55116"
       cy="128.77846"
       rx="10.214685"
       ry="8.6701422" />
    <path
       style="fill:#ffffff;fill-opacity:1;stroke-width:2.85714293"
       d="m 297.70191,727.80878 -44.01236,-0.87125 1.85906,-40.6375 c 1.02248,-22.35062 1.86376,-60.24463 1.86951,-84.20892 l 0.0104,-43.57142 h 171.42857 c 94.28572,0 171.49346,0.32142 171.57277,0.71428 1.03266,5.11509 7.84303,163.67943 7.06358,164.4589 -1.55443,1.55442 -193.99672,6.09311 -232.92206,5.49339 -18.07143,-0.27842 -52.66271,-0.89829 -76.86952,-1.37748 z"
       id="path6574"
       inkscape:connector-curvature="0"
       transform="scale(0.26458333)" />
    <path
       style="fill:#ffffff;fill-opacity:1;stroke-width:2.85714293"
       d="m 262.85714,551.69789 c 0,-0.60913 16.7704,-16.0377 37.26754,-34.28572 l 37.26754,-33.1782 h 24.03157 24.03156 l 1.85692,9.8982 c 1.0213,5.44402 3.65099,11.38716 5.84375,13.20699 6.81805,5.65848 4.43543,8.32338 -7.44173,8.32338 -9.52381,0 -11.42858,0.95238 -11.42858,5.71429 0,5.5371 1.90477,5.71428 61.42858,5.71428 59.5238,0 61.42857,-0.1772 61.42857,-5.71428 0,-5.14186 -1.90477,-5.71429 -19.01425,-5.71429 -18.41424,0 -18.86119,-0.16914 -14.16359,-5.35992 2.66786,-2.94795 5.63399,-10.18705 6.59141,-16.08688 l 1.74074,-10.72697 18.85142,1.78086 c 10.36827,0.97947 24.76485,1.79 31.99238,1.80117 13.06877,0.0202 13.30951,0.20084 43.81774,32.87746 l 30.67675,32.85714 H 430.2463 c -92.06403,0 -167.38916,-0.49838 -167.38916,-1.10751 z"
       id="path6576"
       inkscape:connector-curvature="0"
       transform="scale(0.26458333)" />
    <path
       style="fill:#ffffff;fill-opacity:1;stroke-width:2.85714293"
       d="m 374.25047,443.33252 c -21.52583,-8.85675 -63.32087,-31.29479 -75.27238,-40.41065 -5.44587,-4.15377 -14.42303,-16.24946 -20.15344,-27.15447 -10.7519,-20.46089 -19.52695,-29.60225 -38.83053,-40.45147 -6.28248,-3.53095 -11.42526,-7.7903 -11.42841,-9.46522 -0.005,-2.43209 22.17521,-57.88891 24.40242,-61.01418 1.88839,-2.64982 153.27556,38.02685 164.73238,44.26243 15.47638,8.42331 28.7642,23.33606 52.12405,58.49821 16.09955,24.23366 16.39243,25.02779 13.01014,35.27622 -1.9031,5.76645 -9.03515,16.30282 -15.84901,23.41416 -10.76415,11.23408 -13.43887,12.66616 -20.39569,10.92011 -9.34075,-2.34438 -8.26062,-1.42033 -10.61006,-9.07694 -1.32471,-4.31711 0.38308,-8.7842 5.83554,-15.26408 11.69487,-13.89857 10.42457,-24.44094 -4.5458,-37.72598 -13.45058,-11.93634 -30.82974,-18.05182 -43.88187,-15.44139 -11.60974,2.32194 -38.51482,18.09874 -42.01357,24.63622 -2.45169,4.58103 -0.52824,7.11284 12.99148,17.10044 8.72808,6.44782 22.56637,14.92585 30.75176,18.84008 22.53737,10.7773 23.38255,11.35027 24.40417,16.54431 2.77495,14.10823 -19.14566,17.26148 -45.27118,6.5122 z"
       id="path6578"
       inkscape:connector-curvature="0"
       transform="scale(0.26458333)" />
    <path
       style="fill:#ffffff;fill-opacity:1;stroke-width:2.85714293"
       d="m 185,346.22616 c -5.89286,-1.64999 -10.71429,-3.82629 -10.71429,-4.83621 0,-1.90039 53.97032,-112.06783 55.80207,-113.90652 0.56779,-0.56994 7.61122,0.54199 15.65206,2.47096 9.58188,2.29865 14.14657,4.7402 13.24666,7.08533 -0.75517,1.96796 -12.5693,28.17746 -26.2536,58.24333 -27.18863,59.73631 -24.93158,57.32746 -47.7329,50.94311 z m 19.94982,-11.47134 c -1.53067,-4.65108 -13.46164,-6.02 -17.42221,-1.99897 -5.08909,5.16678 5.86865,12.15519 13.04069,8.31683 3.02127,-1.61693 4.99295,-4.45997 4.38152,-6.31786 z"
       id="path6580"
       inkscape:connector-curvature="0"
       transform="scale(0.26458333)" />
  </g>
</svg>
