<?xml version="1.0" encoding="UTF-8" standalone="no"?>
<!-- Created with Inkscape (http://www.inkscape.org/) -->

<svg
   xmlns:dc="http://purl.org/dc/elements/1.1/"
   xmlns:cc="http://creativecommons.org/ns#"
   xmlns:rdf="http://www.w3.org/1999/02/22-rdf-syntax-ns#"
   xmlns:svg="http://www.w3.org/2000/svg"
   xmlns="http://www.w3.org/2000/svg"
   xmlns:sodipodi="http://sodipodi.sourceforge.net/DTD/sodipodi-0.dtd"
   xmlns:inkscape="http://www.inkscape.org/namespaces/inkscape"
   width="210mm"
   height="297mm"
   viewBox="0 0 210 297"
   version="1.1"
   id="svg8"
   inkscape:version="0.92.4 (5da689c313, 2019-01-14)"
   sodipodi:docname="Ä.3.svg">
  <defs
     id="defs2" />
  <sodipodi:namedview
     id="base"
     pagecolor="#ffffff"
     bordercolor="#666666"
     borderopacity="1.0"
     inkscape:pageopacity="0.0"
     inkscape:pageshadow="2"
     inkscape:zoom="0.35"
     inkscape:cx="383.00893"
     inkscape:cy="197.57427"
     inkscape:document-units="mm"
     inkscape:current-layer="layer1"
     showgrid="false"
     inkscape:window-width="1600"
     inkscape:window-height="837"
     inkscape:window-x="-8"
     inkscape:window-y="-8"
     inkscape:window-maximized="1" />
  <metadata
     id="metadata5">
    <rdf:RDF>
      <cc:Work
         rdf:about="">
        <dc:format>image/svg+xml</dc:format>
        <dc:type
           rdf:resource="http://purl.org/dc/dcmitype/StillImage" />
        <dc:title></dc:title>
      </cc:Work>
    </rdf:RDF>
  </metadata>
  <g
     inkscape:label="Vrstva 1"
     inkscape:groupmode="layer"
     id="layer1">
    <ellipse
       style="fill:#a3d14c;fill-opacity:1;stroke-width:0.41497853"
       id="path5089"
       cx="106.58929"
       cy="154.88095"
       rx="99.785713"
       ry="98.273804" />
    <path
       style="fill:none;stroke:#000000;stroke-width:1.05570996px;stroke-linecap:butt;stroke-linejoin:miter;stroke-opacity:1"
       d="m 114.65703,152.70927 c 0.34989,-48.35044 -0.34991,-50.38199 -0.34991,-50.38199 L 40.832235,101.921 41.532,199.02821 53.078067,198.62192"
       id="path7996"
       inkscape:connector-curvature="0" />
    <path
       style="fill:none;stroke:#000000;stroke-width:1.07301259px;stroke-linecap:butt;stroke-linejoin:miter;stroke-opacity:1"
       d="m 76.60852,142.40409 c 0.35917,13.90107 -1.29423,20.46917 -7.90206,25.34901 -3.828749,2.82749 -13.649378,-1.22655 -13.649378,-1.22655 0,0 -3.368019,0.63405 -4.31024,2.04426 -2.337255,3.49837 -2.002131,8.73566 -1.436812,13.08336 1.208495,9.29453 4.049691,19.31448 10.057326,25.75789 8.189874,8.78389 20.362904,13.04527 31.608764,13.49219 9.23765,0.36682 19.71718,-1.94682 26.58009,-8.99477 4.42439,-4.54364 6.08975,-12.07628 6.82459,-18.80737 0.8206,-7.51673 -2.8735,-22.48701 -2.8735,-22.48701 0,0 -0.96664,-6.70541 -6.86823,-17.94004 -4.43537,-8.44346 -10.69991,-12.24171 -17.60031,-15.12762 -4.15137,-1.73621 -8.99175,-2.24227 -13.24634,-0.86732 -2.81189,0.90871 -7.1839,5.72397 -7.1839,5.72397"
       id="path8004"
       inkscape:connector-curvature="0"
       sodipodi:nodetypes="cacaaaaaacsaac" />
    <path
       style="fill:none;stroke:#000000;stroke-width:1.05570996px;stroke-linecap:butt;stroke-linejoin:miter;stroke-opacity:1"
       d="m 131.10143,104.35883 c 0,0 -2.68407,-12.91582 -6.52763,-18.3042 -4.52609,-6.3452 -17.26424,-12.5751 -17.26424,-12.5751 0,0 0.60013,15.19794 3.5413,21.73143 2.68953,5.97455 12.20338,14.42985 12.20338,14.42985 z"
       id="path8008"
       inkscape:connector-curvature="0"
       sodipodi:nodetypes="cscscc" />
    <path
       style="fill:none;stroke:#000000;stroke-width:1.05570996px;stroke-linecap:butt;stroke-linejoin:miter;stroke-opacity:1"
       d="m 125.95219,114.96736 7.95848,-4.90537"
       id="path8019"
       inkscape:connector-curvature="0" />
    <ellipse
       style="fill:#000000;stroke-width:1.19646358"
       id="path8023"
       cx="80.783852"
       cy="172.59433"
       rx="8.9556751"
       ry="10.243658" />
    <ellipse
       style="fill:#ffffff;stroke-width:1.06300628"
       id="path8023-6"
       cx="80.090866"
       cy="172.78249"
       rx="7.7186613"
       ry="9.3817501" />
    <path
       style="fill:#ffffff;fill-opacity:1;stroke-width:0.75595242"
       d="M 42.204206,167.65116 C 41.92892,150.7576 41.703688,129.11986 41.703688,119.56728 v -17.36831 l 3.96875,0.4767 c 2.182812,0.26219 18.341292,0.47966 35.907732,0.48328 l 31.93899,0.007 v 22.64253 22.64258 l -3.62694,-3.62696 c -4.17619,-4.17618 -13.24969,-8.94088 -18.3035,-9.61156 -4.68511,-0.62175 -9.35942,0.8035 -12.78497,3.89827 l -2.87973,2.60166 -0.35744,7.37404 c -0.40663,8.38892 -1.97708,12.81546 -5.82969,16.43173 -2.69686,2.53143 -5.76785,2.83102 -11.776107,1.14881 -5.738415,-1.60665 -8.306718,0.24051 -9.798457,7.04719 -0.612542,2.79498 0.818377,13.07592 2.630125,18.89709 0.788411,2.53315 1.362175,4.65778 1.275032,4.72138 -0.08714,0.0636 -2.229411,0.32234 -4.760597,0.57501 l -4.60216,0.45938 z"
       id="path1995"
       inkscape:connector-curvature="0" />
    <path
       style="fill:#ffffff;fill-opacity:1;stroke-width:0.75595242"
       d="m 119.05593,104.48791 c -5.46159,-5.77483 -7.60661,-9.39471 -8.84672,-14.92954 -1.36967,-6.11309 -2.30096,-14.36309 -1.62135,-14.36309 1.07055,0 10.71597,6.6493 13.07986,9.01691 3.47615,3.48162 4.87746,6.59331 8.08346,17.94981 0.37556,1.33031 -0.17876,2.0843 -2.91771,3.96875 -1.85975,1.27954 -3.52586,2.32643 -3.70246,2.32643 -0.17661,0 -2.01039,-1.78617 -4.07508,-3.96927 z"
       id="path1997"
       inkscape:connector-curvature="0" />
    <path
       style="fill:#ffffff;fill-opacity:1;stroke-width:0.75595242"
       d="m 125.79878,112.77272 c -1.69164,-2.19276 -1.52878,-2.71357 1.46883,-4.6973 3.00184,-1.98652 3.18509,-2.01694 4.15553,-0.68978 1.35398,1.85167 1.02404,2.53928 -2.19639,4.57745 -2.06029,1.30393 -2.89461,1.50098 -3.42797,0.80963 z"
       id="path1999"
       inkscape:connector-curvature="0" />
    <path
       style="fill:#800080;fill-opacity:1;stroke-width:0.75595242"
       d="m 155.09654,166.87777 c -11.43378,-21.06253 -22.41323,-41.28309 -24.39879,-44.93458 l -3.6101,-6.63907 3.11456,-1.96613 c 1.71301,-1.08138 3.22943,-1.85127 3.36982,-1.71088 0.14039,0.14039 10.3374,20.66071 22.66003,45.6007 21.83319,44.18859 23.00537,46.93745 20.35512,47.73439 -0.38607,0.1161 -10.05686,-17.0219 -21.49064,-38.08443 z"
       id="path2001"
       inkscape:connector-curvature="0" />
    <path
       style="fill:#800080;fill-opacity:1;stroke-width:0.75595242"
       d="m 85.95017,219.52994 c -10.48202,-1.60452 -19.70926,-6.2603 -25.982366,-13.10988 -5.786586,-6.31836 -9.059071,-15.65692 -9.7365,-27.78465 -0.400293,-7.16626 -0.369067,-7.34597 1.622388,-9.33743 1.485061,-1.48506 2.476003,-1.89742 3.688778,-1.535 0.912032,0.27255 3.755679,0.88166 6.319216,1.35357 4.472544,0.82334 4.782784,0.77742 7.674054,-1.13593 4.74824,-3.14223 7.13953,-8.81905 7.65784,-18.17935 l 0.41784,-7.54587 2.74475,-2.21733 c 5.26244,-4.25123 12.048,-4.17446 20.31127,0.22982 9.64557,5.14104 16.14811,15.23105 20.17868,31.31132 1.74535,6.96322 2.08307,9.91359 2.07671,18.14285 -0.007,8.49235 -0.24557,10.4263 -1.75932,14.23607 -2.0695,5.20846 -5.16287,8.95227 -9.44892,11.43574 -6.38372,3.69893 -17.23748,5.44132 -25.76442,4.13607 z M 84.58563,182.0309 c 2.91886,-1.38509 5.45337,-5.8146 5.48241,-9.58149 0.0247,-3.19817 -2.19772,-7.28495 -4.83659,-8.89412 -7.18472,-4.38124 -15.5324,3.2613 -13.13986,12.02989 0.91509,3.3538 1.77114,4.4893 4.76388,6.31907 2.80844,1.71708 4.32618,1.74195 7.73016,0.12665 z"
       id="path2003"
       inkscape:connector-curvature="0" />
    <path
       style="fill:#ffffff;fill-opacity:1;stroke-width:0.75595242"
       d="m 171.25346,195.39171 c -13.26698,-23.26866 -43.4066,-79.4621 -42.98541,-80.1436 0.57888,-0.93664 4.93588,-3.23315 5.34942,-2.8196 0.62858,0.62858 37.66539,76.07686 40.50551,82.51443 4.86822,11.03457 3.30549,11.27897 -2.86952,0.44877 z"
       id="path2005"
       inkscape:connector-curvature="0" />
    <path
       style="fill:#aa6380;fill-opacity:1;stroke-width:1.06907809"
       d="m 118.8187,103.57872 c -2.10092,-2.32547 -4.74098,-6.05388 -5.86678,-8.28535 -1.88473,-3.73576 -5.062,-18.24429 -4.18699,-19.1193 0.61326,-0.61326 10.72194,6.54538 13.54317,9.59083 1.42507,1.53833 3.69995,6.04464 5.05529,10.01403 l 2.46425,7.21708 -2.91712,2.40012 c -1.60442,1.32006 -3.22196,2.4025 -3.59454,2.40543 -0.37257,0.003 -2.39635,-1.89736 -4.49728,-4.22284 z"
       id="path2231"
       inkscape:connector-curvature="0" />
    <path
       style="fill:#f9f9f9;fill-opacity:1;stroke-width:0.53453904"
       d="M 86.78869,219.48316 C 78.79647,218.05049 72.464,215.66946 67.01912,212.0497 56.522395,205.0715 51.306163,194.34391 50.594847,178.27192 l -0.311809,-7.04527 1.705565,-1.70556 c 1.875219,-1.87522 1.09356,-1.85032 9.676746,-0.3083 3.344675,0.60089 4.302111,0.60214 5.777541,0.008 3.8773,-1.56254 6.95957,-5.23961 8.42503,-10.05086 0.45524,-1.49457 1.07636,-5.72419 1.38027,-9.39914 0.30392,-3.67496 0.73056,-7.03255 0.94809,-7.46131 0.77424,-1.52607 5.44109,-4.23437 8.32997,-4.8341 6.32842,-1.31377 14.64349,2.05205 21.10946,8.54481 6.22878,6.25459 9.64181,13.00805 12.97128,25.6667 1.43517,5.45649 1.64458,7.23645 1.86372,15.84143 0.2721,10.68439 -0.10267,13.52523 -2.40444,18.22606 -3.13337,6.39918 -8.38506,10.36175 -16.53905,12.47927 -4.00634,1.04041 -13.81951,1.77322 -16.73853,1.24996 z M 83.84872,182.436 c 7.98019,-3.6831 8.38214,-15.43499 0.66263,-19.37319 -6.02438,-3.07341 -13.0029,2.17106 -12.89755,9.69271 0.0665,4.74435 2.51526,8.44282 6.69986,10.11885 1.88436,0.75474 3.17068,0.65286 5.53506,-0.43837 z"
       id="path2233"
       inkscape:connector-curvature="0" />
  </g>
</svg>
