<?xml version="1.0" encoding="UTF-8" standalone="no"?>
<!-- Created with Inkscape (http://www.inkscape.org/) -->

<svg
   xmlns:dc="http://purl.org/dc/elements/1.1/"
   xmlns:cc="http://creativecommons.org/ns#"
   xmlns:rdf="http://www.w3.org/1999/02/22-rdf-syntax-ns#"
   xmlns:svg="http://www.w3.org/2000/svg"
   xmlns="http://www.w3.org/2000/svg"
   xmlns:sodipodi="http://sodipodi.sourceforge.net/DTD/sodipodi-0.dtd"
   xmlns:inkscape="http://www.inkscape.org/namespaces/inkscape"
   width="210mm"
   height="297mm"
   viewBox="0 0 210 297"
   version="1.1"
   id="svg8"
   inkscape:version="0.92.4 (5da689c313, 2019-01-14)"
   sodipodi:docname="Ä.2.svg">
  <defs
     id="defs2" />
  <sodipodi:namedview
     id="base"
     pagecolor="#ffffff"
     bordercolor="#666666"
     borderopacity="1.0"
     inkscape:pageopacity="0.0"
     inkscape:pageshadow="2"
     inkscape:zoom="1.979899"
     inkscape:cx="574.68537"
     inkscape:cy="651.96418"
     inkscape:document-units="mm"
     inkscape:current-layer="layer1"
     showgrid="false"
     inkscape:window-width="1600"
     inkscape:window-height="837"
     inkscape:window-x="-8"
     inkscape:window-y="-8"
     inkscape:window-maximized="1" />
  <metadata
     id="metadata5">
    <rdf:RDF>
      <cc:Work
         rdf:about="">
        <dc:format>image/svg+xml</dc:format>
        <dc:type
           rdf:resource="http://purl.org/dc/dcmitype/StillImage" />
        <dc:title></dc:title>
      </cc:Work>
    </rdf:RDF>
  </metadata>
  <g
     inkscape:label="Vrstva 1"
     inkscape:groupmode="layer"
     id="layer1">
    <ellipse
       style="fill:#a3d14c;fill-opacity:1;stroke-width:0.41497853"
       id="path5089"
       cx="105.83334"
       cy="143.54166"
       rx="99.785713"
       ry="98.273804" />
    <path
       style="fill:none;stroke:#000000;stroke-width:0.9518103px;stroke-linecap:butt;stroke-linejoin:miter;stroke-opacity:1"
       d="m 109.68242,147.02633 0.59233,-44.55217 c 0,0 6.68526,0 27.92103,1.17537 21.23579,1.17538 29.88739,-1.17537 29.88739,-1.17537 l 1.57302,45.83903 -25.56156,9.40287 v 0 l -18.95559,-5.9134 -16.69827,-5.12973 z"
       id="path7845"
       inkscape:connector-curvature="0"
       sodipodi:nodetypes="ccsccccccc" />
    <path
       style="fill:none;stroke:#000000;stroke-width:1.07297754px;stroke-linecap:butt;stroke-linejoin:miter;stroke-opacity:1"
       d="m 144.09463,157.71606 v 0 l 12.87731,-4.76651 16.58822,-6.62162 c 0,0 7.99455,-2.94461 11.2214,-0.60199 2.19396,1.59274 3.90128,5.34456 3.4153,8.42757 -0.70392,4.46553 -8.29414,9.0295 -8.29414,9.0295 l -19.02769,12.64137 c 0,0 -16.68786,11.10573 -25.85805,13.24333 -3.12938,0.72947 -6.30134,0.79811 -9.49101,0.61055 -4.95613,-0.29134 -9.95503,-1.20155 -14.90345,-1.21255 -9.92176,-0.0216 -19.969803,-1.3752 -29.761293,0.602 -7.41062,1.49642 -14.672215,4.48383 -21.467149,8.42765 -2.449213,1.42155 -4.129434,5.20052 -6.83038,5.41771 -6.460913,0.51955 -12.306136,-5.57176 -17.564034,-10.23347 -4.763603,-4.22349 -13.750108,-8.67191 -12.197224,-15.65125 1.295158,-5.82101 9.546991,-2.76618 14.148783,-4.81572 8.558033,-3.81158 16.923189,-8.40591 24.882324,-13.84533 5.129388,-3.50554 9.1899,-9.36009 14.63669,-12.03937 4.44557,-2.1868 10.24566,-3.00989 14.14875,-3.00989 3.90311,0 39.031123,9.63151 39.031123,9.63151 z"
       id="path7843-9"
       inkscape:connector-curvature="0"
       sodipodi:nodetypes="ccccssccssssssasasasccc" />
    <path
       style="fill:none;stroke:#000000;stroke-width:1.07297754px;stroke-linecap:butt;stroke-linejoin:miter;stroke-opacity:1"
       d="m 144.09463,157.71606 c 0,0 -0.29892,6.11509 -1.9467,8.03327 -1.63309,1.90138 -4.31675,1.69235 -6.55483,1.91546 -8.04408,0.80193 -16.18922,-0.48817 -24.14924,-2.12828 -3.75549,-0.77378 -7.23414,-3.76851 -11.03971,-3.61807 -3.414803,0.13502 -9.717403,4.02234 -9.717403,4.02234"
       id="path7847-7"
       inkscape:connector-curvature="0"
       sodipodi:nodetypes="caaaac" />
    <rect
       style="fill:#000000;stroke-width:1.80743515"
       id="rect7886"
       width="1.1300982"
       height="52.037647"
       x="137.41818"
       y="103.60668" />
    <rect
       style="fill:#000000;stroke-width:1.75445473"
       id="rect7886-2"
       width="1.0431545"
       height="53.11829"
       x="141.66774"
       y="103.84068" />
    <path
       style="fill:none;stroke:#000000;stroke-width:1.07297754px;stroke-linecap:butt;stroke-linejoin:miter;stroke-opacity:1"
       d="m 139.60821,96.831707 c 0,0 0.24375,-1.80589 -1.09771,-1.95637 -1.34167,-0.15054 -3.02649,0.12853 -4.269,1.05342 -0.71767,0.53431 -1.34007,1.4191 -1.58566,2.4079 -0.40002,1.61047 0.35815,5.033883 0.35815,5.033883 0,0 14.66453,1.62758 15.86388,-0.14585 1.39164,-2.05771 1.86404,-4.913123 1.09796,-7.145493 -0.77827,-2.26771 -3.02079,-3.75374 -5.00087,-4.06328 -1.49242,-0.23322 -3.15724,0.55557 -4.26907,1.8059 -0.65898,0.74113 -1.09768,3.00985 -1.09768,3.00985 z"
       id="path7918"
       inkscape:connector-curvature="0"
       sodipodi:nodetypes="ccaacsaaac" />
    <path
       style="fill:none;stroke:#000000;stroke-width:0.8365764px;stroke-linecap:butt;stroke-linejoin:miter;stroke-opacity:1"
       d="m 139.60821,96.831707 -1.63452,4.558813"
       id="path7924"
       inkscape:connector-curvature="0" />
    <path
       style="fill:none;stroke:#000000;stroke-width:0.82126093px;stroke-linecap:butt;stroke-linejoin:miter;stroke-opacity:1"
       d="m 148.13881,93.483107 c 0,0 6.73065,-18.32956 12.00842,-15.91498 43.54073,19.91988 3.27886,18.28749 -11.87924,26.406393"
       id="path7936"
       inkscape:connector-curvature="0"
       sodipodi:nodetypes="csc" />
    <path
       style="fill:none;stroke:#000000;stroke-width:0.82126093px;stroke-linecap:butt;stroke-linejoin:miter;stroke-opacity:1"
       d="m 134.63468,95.665617 c 0,0 -7.28853,-23.7924 -12.54033,-21.3031 -37.750483,17.89337 -4.23853,20.88911 10.91964,29.008023"
       id="path7936-8"
       inkscape:connector-curvature="0"
       sodipodi:nodetypes="csc" />
    <path
       style="fill:none;stroke:#000000;stroke-width:0.82126093px;stroke-linecap:butt;stroke-linejoin:miter;stroke-opacity:1"
       d="M 133.01399,103.37054 C 123.11523,85.373767 123.11523,85.373767 123.11523,85.373767"
       id="path7968"
       inkscape:connector-curvature="0" />
    <path
       style="fill:none;stroke:#000000;stroke-width:0.82126093px;stroke-linecap:butt;stroke-linejoin:miter;stroke-opacity:1"
       d="m 148.26799,103.97452 c 9.8988,-17.996763 9.8988,-17.996763 9.8988,-17.996763"
       id="path7968-2"
       inkscape:connector-curvature="0" />
    <path
       style="fill:#800080;fill-opacity:1;stroke-width:0.75595242"
       d="M 45.804245,200.24346 C 42.619424,198.3019 32.32687,189.82305 27.441147,185.11623 c -2.972091,-2.86326 -3.615156,-3.95617 -3.615156,-6.14404 0,-3.59224 1.328274,-4.46592 7.759238,-5.1037 4.243555,-0.42084 6.894206,-1.26049 11.82256,-3.74506 9.892702,-4.98729 19.413411,-11.14727 24.515263,-15.8616 2.564027,-2.36927 5.682405,-5.01461 6.929725,-5.87853 3.1646,-2.19186 9.73389,-4.0075 14.49987,-4.0075 6.84941,0 53.919213,12.81726 53.909603,14.67977 -0.002,0.44949 -0.35503,2.08039 -0.78379,3.62423 -0.65187,2.34713 -1.23944,2.93469 -3.58656,3.58656 -6.68452,1.85649 -23.79858,0.0448 -31.93768,-3.3809 -2.45499,-1.03329 -5.19674,-1.87871 -6.09277,-1.87871 -2.020663,0 -10.511653,3.74721 -10.511653,4.63895 0,1.03057 1.02823,0.79051 5.62174,-1.31247 4.245123,-1.94348 4.331713,-1.95103 7.839863,-0.68344 10.44195,3.77296 13.89782,4.3716 25.72335,4.45588 11.22236,0.08 11.63761,0.0273 12.99875,-1.65084 0.77333,-0.95341 1.62108,-3.16457 1.88388,-4.91369 l 0.47783,-3.18022 11.09188,-4.08102 c 6.10053,-2.24456 12.89757,-4.91499 15.10453,-5.9343 2.20696,-1.0193 5.97623,-2.03133 8.37616,-2.24894 4.08243,-0.37019 4.46917,-0.26135 6.00372,1.68951 1.98526,2.52385 2.13268,6.47455 0.3435,9.20518 -1.90585,2.9087 -31.71579,22.46 -41.68122,27.33727 -9.89789,4.84421 -6.62183,4.55976 -40.57948,3.52332 -17.896643,-0.54623 -19.270813,-0.48988 -25.324403,1.03846 -8.122072,2.05058 -18.800684,7.09638 -21.996579,10.3937 -2.963156,3.0572 -6.460228,3.37889 -10.429073,0.95936 z"
       id="path1409"
       inkscape:connector-curvature="0" />
    <path
       style="fill:#800080;fill-opacity:1;stroke-width:0.75595242"
       d="m 129.28135,152.17123 c -3.32619,-1.03292 -8.85409,-2.71976 -12.28423,-3.74855 l -6.23661,-1.87051 v -21.4989 -21.4989 h 6.30947 c 3.4702,0 9.42333,0.22103 13.22917,0.49118 l 6.9197,0.49117 v 24.83323 c 0,19.40366 -0.2066,24.8164 -0.94494,24.75627 -0.51972,-0.0423 -3.66637,-0.92208 -6.99256,-1.95499 z"
       id="path1411"
       inkscape:connector-curvature="0" />
    <path
       style="fill:#800080;fill-opacity:1;stroke-width:0.75595242"
       d="m 143.26647,130.90148 v -25.56956 l 11.90625,-0.79092 c 6.54844,-0.435 11.95381,-0.74991 12.01194,-0.69978 0.26567,0.22907 1.6453,43.19331 1.39503,43.44358 -0.58275,0.58275 -23.35307,9.18624 -24.31264,9.18624 -0.81042,0 -1.00058,-4.8596 -1.00058,-25.56956 z"
       id="path1413"
       inkscape:connector-curvature="0" />
    <path
       style="fill:#ffffff;fill-opacity:1;stroke-width:0.75595242"
       d="m 47.139486,200.45793 c -2.966392,-1.52378 -17.077873,-12.92289 -20.424757,-16.49891 -1.113724,-1.18997 -2.234473,-3.01403 -2.490554,-4.05346 -0.800941,-3.25102 0.990707,-4.60298 7.591506,-5.72848 9.810693,-1.67281 26.47458,-10.96405 38.438869,-21.43226 8.989497,-7.8654 16.209937,-9.34303 29.92263,-6.12355 10.19721,2.39411 30.42317,7.9663 36.66369,10.10073 l 5.29167,1.8099 -0.0909,2.80247 c -0.05,1.54136 -0.43047,3.14201 -0.84545,3.55699 -2.55326,2.55326 -20.58768,1.77684 -30.5691,-1.31606 -9.3762,-2.90536 -10.979003,-2.98411 -15.954093,-0.78389 -2.37773,1.05155 -4.32316,2.31046 -4.32316,2.79758 0,1.02042 1.80653,0.68945 6.87247,-1.25911 3.444753,-1.32499 3.516563,-1.3198 9.608503,0.69361 3.3758,1.11571 8.44748,2.36253 11.27039,2.7707 6.7637,0.97799 21.1016,0.97724 22.92982,-10e-4 1.80072,-0.96371 3.14266,-3.38065 3.69837,-6.661 0.41363,-2.44164 0.69923,-2.62139 9.12045,-5.73984 4.7814,-1.7706 11.79724,-4.46334 15.59075,-5.98388 11.63573,-4.66388 16.91521,-3.65631 16.91521,3.22823 0,4.22094 -1.37086,5.48232 -17.76489,16.34612 -16.10574,10.67276 -28.17488,17.40194 -33.10936,18.4602 -2.5781,0.5529 -11.66827,0.65416 -28.06327,0.31261 -23.331523,-0.48605 -24.473373,-0.44353 -30.148043,1.12265 -7.234895,1.99678 -15.664128,5.92747 -20.29658,9.46461 -4.532926,3.46114 -6.422731,3.86763 -9.834131,2.11525 z"
       id="path1415"
       inkscape:connector-curvature="0" />
    <path
       style="fill:#ffffff;fill-opacity:1;stroke-width:0.75595242"
       d="m 139.23472,155.21112 c -0.27718,-0.27718 -0.50396,-11.67317 -0.50396,-25.32441 0,-21.55864 0.14901,-24.82043 1.13392,-24.82043 0.98537,0 1.13393,3.31779 1.13393,25.3244 0,13.92842 -0.28348,25.32441 -0.62996,25.32441 -0.34648,0 -0.85674,-0.22679 -1.13393,-0.50397 z"
       id="path1417"
       inkscape:connector-curvature="0" />
    <path
       style="fill:#ffffff;fill-opacity:1;stroke-width:0.75595242"
       d="m 133.43909,100.30378 c 0,-2.928253 1.13845,-4.308933 3.55297,-4.308933 1.9256,0 2.08138,0.51215 1.01163,3.32581 -0.41394,1.088753 -0.44018,2.089643 -0.0609,2.324033 0.36637,0.22644 1.07165,-0.8671 1.56727,-2.430083 0.49562,-1.56298 1.38132,-3.60719 1.96823,-4.54268 2.20811,-3.51958 7.83582,-0.98508 7.83582,3.52895 0,4.455583 -0.25926,4.597543 -8.39636,4.597543 h -7.47864 z"
       id="path1419"
       inkscape:connector-curvature="0" />
    <path
       style="fill:#ffffff;fill-opacity:1;stroke-width:0.75595242"
       d="m 150.82599,101.52475 c 0,-0.26415 1.72296,-3.676363 3.8288,-7.582693 2.10584,-3.90632 3.69277,-7.50878 3.52652,-8.00546 -0.16625,-0.49668 -1.78096,1.78997 -3.58824,5.08146 l -3.28596,5.98452 -1.08654,-2.29426 c -1.03688,-2.18939 -0.93901,-2.57782 2.14135,-8.49866 1.77534,-3.41243 4.00632,-6.71446 4.95774,-7.33786 1.61924,-1.06097 2.20404,-0.88964 9.14636,2.67953 8.20722,4.21947 12.33021,7.51307 12.33021,9.84983 0,2.17044 -3.90898,3.94459 -15.02699,6.82026 -5.14654,1.33115 -10.16417,2.727023 -11.15029,3.101953 -0.98613,0.37492 -1.79296,0.46554 -1.79296,0.20138 z"
       id="path1421"
       inkscape:connector-curvature="0" />
    <path
       style="fill:#ffffff;fill-opacity:1;stroke-width:0.75595242"
       d="m 121.72182,97.967697 c -15.13487,-5.8653 -17.88369,-8.06491 -15.19902,-12.16225 1.60613,-2.45126 6.37543,-5.94177 12.06993,-8.83362 l 4.43044,-2.24992 1.74713,1.64135 c 1.77055,1.66334 5.04376,7.98918 7.51283,14.51935 1.21561,3.21503 1.24058,3.81552 0.24425,5.87272 l -1.10981,2.2915 -3.29029,-6.11321 c -3.97,-7.37609 -5.2163,-9.16538 -5.23935,-7.5221 -0.009,0.62366 1.82154,4.45066 4.06731,8.50446 2.24577,4.05379 3.85796,7.348873 3.58264,7.322403 -0.27532,-0.0265 -4.24254,-1.498283 -8.81606,-3.270683 z"
       id="path1423"
       inkscape:connector-curvature="0" />
    <path
       style="fill:#a3d14c;fill-opacity:1;stroke-width:0.37797621"
       d="m 124.66705,98.919097 c -18.39967,-6.92522 -21.30712,-9.33089 -17.02852,-14.08972 2.08722,-2.3215 5.95027,-5.00413 11.33019,-7.86808 l 4.12904,-2.19805 1.63439,1.80523 c 2.44315,2.69855 8.50049,15.5922 8.41617,17.91467 -0.0127,0.35142 -0.39552,1.46317 -0.85059,2.47057 l -0.8274,1.83164 -3.15873,-5.80039 c -3.67791,-6.75374 -4.8775,-8.49839 -5.44982,-7.92607 -0.27483,0.27484 0.45114,2.03929 2.38477,5.79612 1.52893,2.97054 3.28298,6.38154 3.89788,7.57999 0.6149,1.19845 1.04967,2.245773 0.96615,2.327373 -0.0835,0.0816 -2.53311,-0.74787 -5.44353,-1.843283 z"
       id="path1480"
       inkscape:connector-curvature="0" />
    <path
       style="fill:#f9f9f9;fill-opacity:1;stroke-width:0.37797621"
       d="m 123.15515,150.16786 -12.09524,-3.69132 -0.0976,-21.425 -0.0976,-21.42499 4.44434,2.2e-4 c 4.76438,2.3e-4 17.38992,0.60754 20.03586,0.96376 l 1.6064,0.21627 -0.003,22.56091 c -0.004,24.11044 -0.10336,26.5415 -1.0888,26.51057 -0.33484,-0.0105 -6.05167,-1.6802 -12.70405,-3.71042 z"
       id="path1482"
       inkscape:connector-curvature="0" />
    <path
       style="fill:#f9f9f9;fill-opacity:1;stroke-width:0.37797621"
       d="m 143.92829,155.5319 c -0.16884,-0.37926 -0.37905,-11.76922 -0.46713,-25.31101 l -0.16015,-24.62143 2.2113,-0.229 c 3.60921,-0.37376 21.3359,-1.45562 21.47459,-1.31059 0.19975,0.20887 0.9349,19.73923 1.20778,32.08661 l 0.24675,11.16428 -5.63421,2.21119 c -6.54206,2.56749 -16.15237,6.0939 -17.58373,6.45217 -0.74637,0.18683 -1.06333,0.0786 -1.2952,-0.44222 z"
       id="path1484"
       inkscape:connector-curvature="0" />
    <path
       style="fill:#f9f9f9;fill-opacity:1;stroke-width:0.37797621"
       d="m 128.44682,100.12418 c -0.62367,-0.206283 -3.85865,-1.437043 -7.18886,-2.735023 -9.36201,-3.64892 -13.83794,-6.09871 -14.95448,-8.18499 -1.3739,-2.56717 3.58713,-7.18753 13.2675,-12.35643 l 3.59738,-1.92084 1.40157,1.72836 c 1.58213,1.95103 5.29975,9.04713 7.05607,13.46848 1.33132,3.35144 1.42834,4.75149 0.47621,6.87148 l -0.6715,1.49516 -2.01643,-3.76302 c -4.35559,-8.12833 -6.04962,-10.57223 -6.65233,-9.59701 -0.16006,0.25898 1.28641,3.59334 3.38875,7.81164 2.01741,4.04788 3.61447,7.404213 3.54903,7.458523 -0.0654,0.0543 -0.62925,-0.07 -1.25291,-0.27633 z"
       id="path1486"
       inkscape:connector-curvature="0" />
    <path
       style="fill:#aa6380;fill-opacity:1;stroke-width:0.37797621"
       d="m 121.32259,97.206067 c -11.24849,-4.4987 -14.98738,-6.78716 -14.98738,-9.17332 0,-2.28102 5.5362,-6.86352 13.38683,-11.08076 l 3.37046,-1.81055 1.02611,1.22911 c 1.3697,1.64067 4.56502,7.45057 6.49847,11.81585 1.77101,3.99853 2.2398,7.08443 1.33775,8.80606 l -0.54351,1.03731 -2.96399,-5.33954 c -2.98312,-5.374 -5.16272,-8.38908 -5.69098,-7.87241 -0.35851,0.35064 1.15796,3.99792 4.24278,10.20437 1.31595,2.64759 2.39263,4.90128 2.39263,5.008193 0,0.37227 -0.61265,0.15783 -8.06917,-2.824313 z"
       id="path1488"
       inkscape:connector-curvature="0" />
    <path
       style="fill:#aa6380;fill-opacity:1;stroke-width:0.37797621"
       d="m 133.6268,100.16774 c 0.14219,-1.965763 0.33131,-2.465213 1.22438,-3.233393 0.73371,-0.63111 1.41753,-0.87337 2.23961,-0.79342 1.30208,0.12662 1.31268,0.17918 0.77645,3.8501 -0.41996,2.874923 0.5242,2.072513 2.20186,-1.87128 1.75212,-4.11884 2.44849,-4.88737 4.38252,-4.83666 2.98126,0.0782 4.5949,2.10363 4.5949,5.76754 0,3.387113 -0.13766,3.441993 -8.634,3.441993 h -6.95388 z"
       id="path1490"
       inkscape:connector-curvature="0" />
    <path
       style="fill:#aa6380;fill-opacity:1;stroke-width:0.37797621"
       d="m 151.31438,101.01307 c 0,-0.19009 1.35457,-2.957783 3.01016,-6.150413 3.15827,-6.09039 4.38027,-9.00099 3.77901,-9.00099 -0.55453,0 -2.23846,2.50497 -4.52132,6.7258 -1.14337,2.11403 -2.16391,3.84616 -2.26785,3.84919 -0.3268,0.01 -1.51191,-3.17253 -1.51191,-4.05951 0,-1.06794 3.59174,-8.04529 5.65735,-10.99001 0.85804,-1.22323 1.97241,-2.41192 2.47637,-2.64154 1.17061,-0.53337 2.56476,-0.0551 8.11626,2.78461 5.41575,2.77023 9.29157,5.32598 11.0588,7.29228 3.50318,3.89779 1.3095,5.25335 -16.26001,10.04773 -5.0156,1.368663 -9.21322,2.488473 -9.32806,2.488473 -0.11484,0 -0.2088,-0.15553 -0.2088,-0.34562 z"
       id="path1492"
       inkscape:connector-curvature="0" />
    <path
       style="fill:#ffffff;fill-opacity:1;stroke-width:0.50507629"
       d="m 527.24707,587.15236 c -0.97871,-0.80683 -1.11883,-1.67646 -1.60733,-9.97526 -0.29902,-5.07975 -0.65506,-38.8442 -0.80689,-76.51905 -0.32307,-80.16611 0.15431,-98.56433 2.65708,-102.40422 0.40738,-0.62503 0.95691,-1.13642 1.22116,-1.13642 0.91933,0 1.97947,2.91742 2.49856,6.87578 2.07146,15.79625 1.86711,157.96136 -0.25965,180.63379 -0.29288,3.12228 -0.41706,3.40926 -1.47527,3.40926 -0.63551,0 -1.63796,-0.39775 -2.22766,-0.88388 z"
       id="path1587"
       inkscape:connector-curvature="0"
       transform="scale(0.26458333)" />
  </g>
</svg>
